<svg id="Laag_1" data-name="Laag 1" xmlns="http://www.w3.org/2000/svg" viewBox="0 0 428.9 196">
  <defs>
    <style>
      .cls-1 {
        fill: #fff;
      }
    </style>
  </defs>
  <title>noa_logo</title>
  <g>
    <path class="cls-1" d="M333.67,647.38h-1.9c-2.48-3-5-6-7.42-9.32h0v9.32h-2.1v-13h1.92c2.48,3,4.95,5.92,7.4,9.27h0v-9.27h2.1Z" transform="translate(-195.99 -516.77)"/>
    <path class="cls-1" d="M340.48,641.62a2.06,2.06,0,0,1,2-2.37c1.23,0,1.73,1,1.64,2.37Zm6,1.34c.18-2.77-1-5.09-3.92-5.09a4.52,4.52,0,0,0-4.73,4.68,4.76,4.76,0,0,0,4.9,5.05,7.38,7.38,0,0,0,3.64-1l-.71-1.3a4.6,4.6,0,0,1-2.49.74,2.79,2.79,0,0,1-2.71-3Z" transform="translate(-195.99 -516.77)"/>
    <path class="cls-1" d="M354.68,639.36c1.48,0,2.25,1.5,2.25,3.12,0,1.85-.71,3.63-2.36,3.63-1.43,0-2.14-1.74-2.14-3.54S353.08,639.36,354.68,639.36Zm2.25,8h2.47V633.73h-2.47v5.44h0a3.41,3.41,0,0,0-2.84-1.3c-2.49,0-4.23,2.34-4.23,4.75,0,3,1.61,5,4,5a3.77,3.77,0,0,0,3-1.56h0Z" transform="translate(-195.99 -516.77)"/>
    <path class="cls-1" d="M365.93,641.62a2.06,2.06,0,0,1,2-2.37c1.23,0,1.73,1,1.64,2.37Zm6,1.34c.18-2.77-1-5.09-3.92-5.09a4.52,4.52,0,0,0-4.73,4.68,4.76,4.76,0,0,0,4.9,5.05,7.35,7.35,0,0,0,3.63-1l-.7-1.3a4.6,4.6,0,0,1-2.49.74,2.79,2.79,0,0,1-2.71-3Z" transform="translate(-195.99 -516.77)"/>
    <path class="cls-1" d="M378.24,639.73h0l.5-.73c.3-.38.84-1.13,1.6-1.13a2.41,2.41,0,0,1,1.67.84l-.93,1.71a2.21,2.21,0,0,0-1.17-.32c-.85,0-1.69.69-1.69,2.69v4.59h-2.46V638.1h2.45Z" transform="translate(-195.99 -516.77)"/>
    <path class="cls-1" d="M385.09,647.38V633.73h2.46v13.65Z" transform="translate(-195.99 -516.77)"/>
    <path class="cls-1" d="M397.09,642c.19,2.73-1.09,4-2.07,4a1.25,1.25,0,0,1-1.12-1.38,2.17,2.17,0,0,1,1.82-2.13Zm0,4a2.93,2.93,0,0,0,.24,1.36h2.62a5.75,5.75,0,0,1-.39-2.27v-3.78c0-2.9-2.1-3.46-3.81-3.46a5.24,5.24,0,0,0-3.56,1.27l.8,1.16a3.57,3.57,0,0,1,2.45-.94,1.67,1.67,0,0,1,1.68,1.39l-2.19.65c-2.15.61-3.43,1.61-3.43,3.38a2.66,2.66,0,0,0,2.66,2.82,4.27,4.27,0,0,0,2.37-1.11Z" transform="translate(-195.99 -516.77)"/>
    <path class="cls-1" d="M406.23,639.19a4.31,4.31,0,0,1,3.17-1.32c2.17,0,3.32,1.19,3.32,3.53v6h-2.46v-5.7c0-1.3-.58-2.15-1.86-2.15a2.09,2.09,0,0,0-2.15,2.32v5.53h-2.47V638.1h2.45Z" transform="translate(-195.99 -516.77)"/>
    <path class="cls-1" d="M421.45,639.36c1.48,0,2.24,1.5,2.24,3.12,0,1.85-.7,3.63-2.35,3.63-1.43,0-2.14-1.74-2.14-3.54S419.85,639.36,421.45,639.36Zm2.24,8h2.47V633.73h-2.47v5.44h0a3.42,3.42,0,0,0-2.84-1.3c-2.49,0-4.23,2.34-4.23,4.75,0,3,1.61,5,4,5a3.79,3.79,0,0,0,3-1.56h0Z" transform="translate(-195.99 -516.77)"/>
    <path class="cls-1" d="M435.57,639.84a2.75,2.75,0,0,0-1.57-.59,1,1,0,0,0-1.12.94c0,.75.89,1.17,1.93,1.93a3.5,3.5,0,0,1,1.71,2.81c0,1.3-1.43,2.67-3.47,2.67a5.16,5.16,0,0,1-3.1-1.06l.78-1.28a3.64,3.64,0,0,0,2,.89,1.18,1.18,0,0,0,1.34-1.15c0-.87-1-1.35-1.86-2-1.05-.72-1.78-1.42-1.78-2.58,0-1.46,1.41-2.56,3.23-2.56a4,4,0,0,1,2.69.86Z" transform="translate(-195.99 -516.77)"/>
    <path class="cls-1" d="M442.46,641.62a2.06,2.06,0,0,1,2-2.37c1.23,0,1.73,1,1.64,2.37Zm6,1.34c.18-2.77-1-5.09-3.92-5.09a4.52,4.52,0,0,0-4.73,4.68,4.76,4.76,0,0,0,4.9,5.05,7.38,7.38,0,0,0,3.64-1l-.71-1.3a4.6,4.6,0,0,1-2.49.74,2.79,2.79,0,0,1-2.71-3Z" transform="translate(-195.99 -516.77)"/>
    <path class="cls-1" d="M328,676.12c-2.73,0-3.7-2.56-3.7-5s1.1-4.68,3.7-4.68,3.69,2.28,3.69,4.68S330.72,676.12,328,676.12Zm0,1.85c4,0,6.48-3,6.48-6.9a6.48,6.48,0,1,0-13,0C321.51,675,324,678,328,678Z" transform="translate(-195.99 -516.77)"/>
    <path class="cls-1" d="M340.87,669.57a4.28,4.28,0,0,1,3.17-1.32c2.18,0,3.33,1.19,3.33,3.52v6H344.9v-5.7c0-1.3-.58-2.15-1.86-2.15a2.1,2.1,0,0,0-2.15,2.32v5.53h-2.47v-9.28h2.45Z" transform="translate(-195.99 -516.77)"/>
    <path class="cls-1" d="M356.09,669.73c1.49,0,2.25,1.51,2.25,3.12,0,1.86-.71,3.64-2.36,3.64-1.43,0-2.14-1.74-2.14-3.55S354.49,669.73,356.09,669.73Zm2.25,8h2.47V664.11h-2.47v5.44h0a3.38,3.38,0,0,0-2.84-1.3c-2.49,0-4.23,2.34-4.23,4.75,0,3,1.61,5,4,5a3.76,3.76,0,0,0,3-1.55h0Z" transform="translate(-195.99 -516.77)"/>
    <path class="cls-1" d="M367.34,672c0-1.25.61-2.38,2-2.38,1.23,0,1.73,1,1.64,2.38Zm6,1.33c.18-2.76-1-5.08-3.92-5.08a4.52,4.52,0,0,0-4.73,4.68,4.75,4.75,0,0,0,4.9,5,7.36,7.36,0,0,0,3.64-1l-.71-1.3a4.69,4.69,0,0,1-2.49.74,2.8,2.8,0,0,1-2.71-3Z" transform="translate(-195.99 -516.77)"/>
    <path class="cls-1" d="M379.65,670.1h0l.5-.72c.3-.39.84-1.13,1.6-1.13a2.39,2.39,0,0,1,1.67.83l-.93,1.71a2.24,2.24,0,0,0-1.17-.31c-.85,0-1.69.68-1.69,2.69v4.58H377.2v-9.28h2.45Z" transform="translate(-195.99 -516.77)"/>
    <path class="cls-1" d="M389,669.57a4.27,4.27,0,0,1,3.17-1.32c2.17,0,3.32,1.19,3.32,3.52v6H393v-5.7c0-1.3-.57-2.15-1.85-2.15a2.1,2.1,0,0,0-2.16,2.32v5.53H386.5v-9.28H389Z" transform="translate(-195.99 -516.77)"/>
    <path class="cls-1" d="M402,672c0-1.25.61-2.38,2-2.38,1.23,0,1.73,1,1.63,2.38Zm6,1.33c.19-2.76-1-5.08-3.91-5.08a4.52,4.52,0,0,0-4.74,4.68,4.75,4.75,0,0,0,4.9,5,7.33,7.33,0,0,0,3.64-1l-.7-1.3a4.72,4.72,0,0,1-2.49.74,2.79,2.79,0,0,1-2.71-3Z" transform="translate(-195.99 -516.77)"/>
    <path class="cls-1" d="M414.28,669.57h0a3.78,3.78,0,0,1,2.93-1.32,3.13,3.13,0,0,1,2.73,1.32,4.87,4.87,0,0,1,3.08-1.32c2.1,0,3.2,1.26,3.23,3.39v6.09h-2.46v-5.64c0-1.08-.38-2.19-1.6-2.19s-1.93.71-1.93,2.32v5.53h-2.47v-5.66c0-1.3-.58-2.19-1.63-2.19s-1.9.8-1.9,2.38v5.47h-2.47v-9.28h2.45Z" transform="translate(-195.99 -516.77)"/>
    <path class="cls-1" d="M432.83,672c0-1.25.61-2.38,2-2.38,1.23,0,1.73,1,1.63,2.38Zm6,1.33c.19-2.76-1-5.08-3.91-5.08a4.52,4.52,0,0,0-4.74,4.68,4.75,4.75,0,0,0,4.9,5,7.33,7.33,0,0,0,3.64-1l-.7-1.3a4.69,4.69,0,0,1-2.49.74,2.79,2.79,0,0,1-2.71-3Z" transform="translate(-195.99 -516.77)"/>
    <path class="cls-1" d="M445.13,670.1h0l.5-.72c.3-.39.84-1.13,1.6-1.13a2.39,2.39,0,0,1,1.67.83l-.93,1.71a2.3,2.3,0,0,0-1.17-.31c-.85,0-1.69.68-1.69,2.69v4.58h-2.47v-9.28h2.45Z" transform="translate(-195.99 -516.77)"/>
    <path class="cls-1" d="M457,670.22a2.77,2.77,0,0,0-1.57-.6,1,1,0,0,0-1.12,1c0,.74.89,1.17,1.93,1.93a3.49,3.49,0,0,1,1.71,2.8c0,1.3-1.43,2.67-3.47,2.67a5.16,5.16,0,0,1-3.1-1.05l.78-1.28a3.71,3.71,0,0,0,2,.89,1.18,1.18,0,0,0,1.34-1.15c0-.88-1-1.36-1.86-2-1.05-.72-1.78-1.43-1.78-2.58,0-1.47,1.41-2.56,3.23-2.56a4.09,4.09,0,0,1,2.69.85Z" transform="translate(-195.99 -516.77)"/>
    <path class="cls-1" d="M464.31,677.75l-3.79-9,2.47-.44c.8,2.13,1.62,4.28,2.4,6.86h0c.84-2.58,1.69-4.73,2.55-6.86l2.11.38-4,9.08Z" transform="translate(-195.99 -516.77)"/>
    <path class="cls-1" d="M475.39,672c0-1.25.61-2.38,2-2.38,1.23,0,1.73,1,1.64,2.38Zm6,1.33c.18-2.76-1-5.08-3.92-5.08a4.52,4.52,0,0,0-4.73,4.68,4.75,4.75,0,0,0,4.9,5,7.36,7.36,0,0,0,3.64-1l-.71-1.3a4.69,4.69,0,0,1-2.49.74,2.8,2.8,0,0,1-2.71-3Z" transform="translate(-195.99 -516.77)"/>
    <path class="cls-1" d="M487.7,670.1h0l.51-.72c.29-.39.83-1.13,1.59-1.13a2.39,2.39,0,0,1,1.67.83l-.92,1.71a2.3,2.3,0,0,0-1.17-.31c-.86,0-1.69.68-1.69,2.69v4.58h-2.47v-9.28h2.45Z" transform="translate(-195.99 -516.77)"/>
    <path class="cls-1" d="M496.7,672c0-1.25.61-2.38,2-2.38,1.23,0,1.73,1,1.64,2.38Zm6,1.33c.18-2.76-1-5.08-3.92-5.08a4.52,4.52,0,0,0-4.73,4.68,4.75,4.75,0,0,0,4.9,5,7.36,7.36,0,0,0,3.64-1l-.71-1.3a4.69,4.69,0,0,1-2.49.74,2.8,2.8,0,0,1-2.71-3Z" transform="translate(-195.99 -516.77)"/>
    <path class="cls-1" d="M509,669.57a4.27,4.27,0,0,1,3.17-1.32c2.17,0,3.32,1.19,3.32,3.52v6H513v-5.7c0-1.3-.58-2.15-1.86-2.15a2.09,2.09,0,0,0-2.15,2.32v5.53h-2.47v-9.28H509Z" transform="translate(-195.99 -516.77)"/>
    <path class="cls-1" d="M522.35,668.47v9.28h-2.47v-9.28Zm-2.71-2.78a1.46,1.46,0,0,1,1.43-1.43,1.5,1.5,0,1,1,0,3A1.52,1.52,0,0,1,519.64,665.69Z" transform="translate(-195.99 -516.77)"/>
    <path class="cls-1" d="M531.08,669.73c1.48,0,2.24,1.51,2.24,3.12,0,1.86-.7,3.64-2.35,3.64-1.43,0-2.14-1.74-2.14-3.55S529.48,669.73,531.08,669.73Zm4.71-1.26h-2.47v1.13h0a3.31,3.31,0,0,0-2.77-1.35,4.59,4.59,0,0,0-4.31,4.75c0,3,1.62,5,4.09,5a3.76,3.76,0,0,0,3-1.55h0v1.22c0,2.15-1.26,3.16-2.89,3.16a6.08,6.08,0,0,1-3.23-.8l-.48,1.52a8.76,8.76,0,0,0,3.89.87c2.77,0,5.18-1.35,5.18-5.47Z" transform="translate(-195.99 -516.77)"/>
    <path class="cls-1" d="M542.64,668.47v9.28h-2.47v-9.28Zm-2.71-2.78a1.46,1.46,0,0,1,1.43-1.43,1.5,1.5,0,1,1-1.43,1.43Z" transform="translate(-195.99 -516.77)"/>
    <path class="cls-1" d="M549.47,669.57a4.31,4.31,0,0,1,3.18-1.32c2.17,0,3.32,1.19,3.32,3.52v6H553.5v-5.7c0-1.3-.57-2.15-1.86-2.15a2.1,2.1,0,0,0-2.15,2.32v5.53H547v-9.28h2.45Z" transform="translate(-195.99 -516.77)"/>
    <path class="cls-1" d="M564.69,669.73c1.49,0,2.25,1.51,2.25,3.12,0,1.86-.7,3.64-2.36,3.64-1.43,0-2.13-1.74-2.13-3.55S563.1,669.73,564.69,669.73Zm4.72-1.26h-2.47v1.13h0a3.29,3.29,0,0,0-2.76-1.35,4.58,4.58,0,0,0-4.31,4.75c0,3,1.62,5,4.09,5a3.72,3.72,0,0,0,3-1.55h0v1.22c0,2.15-1.26,3.16-2.9,3.16a6.08,6.08,0,0,1-3.23-.8l-.48,1.52a8.84,8.84,0,0,0,3.9.87c2.77,0,5.18-1.35,5.18-5.47Z" transform="translate(-195.99 -516.77)"/>
    <path class="cls-1" d="M583.54,677.75l-3.79-9,2.47-.44c.79,2.13,1.61,4.28,2.39,6.86h0c.83-2.58,1.69-4.73,2.54-6.86l2.12.38-4,9.08Z" transform="translate(-195.99 -516.77)"/>
    <path class="cls-1" d="M596.81,676.6c-1.77,0-2.25-2-2.25-3.6s.56-3.38,2.25-3.38,2.26,1.84,2.26,3.38S598.61,676.6,596.81,676.6Zm0,1.37a4.86,4.86,0,1,0-4.87-5A4.72,4.72,0,0,0,596.81,678Z" transform="translate(-195.99 -516.77)"/>
    <path class="cls-1" d="M609.89,676.6c-1.76,0-2.24-2-2.24-3.6s.55-3.38,2.24-3.38,2.27,1.84,2.27,3.38S611.69,676.6,609.89,676.6Zm0,1.37a4.86,4.86,0,1,0-4.86-5A4.72,4.72,0,0,0,609.89,678Z" transform="translate(-195.99 -516.77)"/>
    <path class="cls-1" d="M621.09,670.1h0l.51-.72c.29-.39.83-1.13,1.59-1.13a2.39,2.39,0,0,1,1.67.83l-.93,1.71a2.24,2.24,0,0,0-1.17-.31c-.85,0-1.68.68-1.68,2.69v4.58h-2.47v-9.28h2.45Z" transform="translate(-195.99 -516.77)"/>
    <path class="cls-1" d="M325,703c.61-1.71,1.23-3.29,1.76-5.29h0c.61,2,1.17,3.58,1.73,5.29Zm1-7.86-5.29,13H323l1.33-3.55h4.61l1.2,3.55H333l-4.89-13Z" transform="translate(-195.99 -516.77)"/>
    <path class="cls-1" d="M336.54,708.13v-8h-1.48v-1.26h1.48v-1.06a3.11,3.11,0,0,1,3.22-3.31,4.34,4.34,0,0,1,1.93.41l-.43,1.23a3.46,3.46,0,0,0-1.06-.17c-.39,0-1.19.22-1.19,1.39v1.51h2.23v1.26H339v8Z" transform="translate(-195.99 -516.77)"/>
    <path class="cls-1" d="M349.41,700.11c1.39,0,2.1,1.59,2.1,3.19s-.56,3.56-2.14,3.56S347,705.29,347,703.6C347,701.46,347.85,700.11,349.41,700.11Zm-4.85,8H347V707a3.64,3.64,0,0,0,2.79,1.37c2.63,0,4.3-2.41,4.3-5.07,0-2-1.17-4.66-4.1-4.66a3.67,3.67,0,0,0-2.95,1.51h0v-5.65h-2.47Z" transform="translate(-195.99 -516.77)"/>
    <path class="cls-1" d="M362.33,707c-1.77,0-2.25-2-2.25-3.61s.56-3.37,2.25-3.37,2.26,1.83,2.26,3.37S364.13,707,362.33,707Zm0,1.37a4.87,4.87,0,1,0-4.87-5A4.73,4.73,0,0,0,362.33,708.35Z" transform="translate(-195.99 -516.77)"/>
    <path class="cls-1" d="M377.07,707a4.06,4.06,0,0,1-3,1.37c-2,0-3.13-1.19-3.13-3.53v-6h2.47v5.62c0,1.3.57,2.15,1.74,2.15.85,0,1.86-.72,1.86-2.41v-5.36h2.47v9.28h-2.45Z" transform="translate(-195.99 -516.77)"/>
    <path class="cls-1" d="M391.21,698.85c.8,2,1.6,4,2.38,6.4h0c.65-2.49,1.34-4.55,2-6.59l2.13.3-3.34,9.17h-1.95c-.8-2.06-1.61-4.14-2.39-6.57h0c-.76,2.43-1.56,4.51-2.34,6.57H386l-3.34-9,2.36-.46c.67,2,1.35,4.1,2,6.59h0c.78-2.43,1.6-4.42,2.4-6.4Z" transform="translate(-195.99 -516.77)"/>
    <path class="cls-1" d="M405.76,700.11c1.4,0,2.1,1.59,2.1,3.19s-.56,3.56-2.13,3.56-2.34-1.57-2.34-3.26C403.39,701.46,404.2,700.11,405.76,700.11Zm-4.84,8h2.47V707a3.6,3.6,0,0,0,2.78,1.37c2.64,0,4.31-2.41,4.31-5.07,0-2-1.17-4.66-4.1-4.66a3.67,3.67,0,0,0-3,1.51h0v-5.65h-2.47Z" transform="translate(-195.99 -516.77)"/>
    <path class="cls-1" d="M416.49,702.37a2.06,2.06,0,0,1,2-2.37c1.22,0,1.72,1,1.63,2.37Zm6,1.34c.18-2.77-1-5.09-3.92-5.09a4.52,4.52,0,0,0-4.73,4.68,4.76,4.76,0,0,0,4.9,5.05,7.36,7.36,0,0,0,3.64-1l-.71-1.3a4.6,4.6,0,0,1-2.49.74,2.78,2.78,0,0,1-2.7-3Z" transform="translate(-195.99 -516.77)"/>
    <path class="cls-1" d="M430.69,700.11c1.49,0,2.25,1.5,2.25,3.12,0,1.85-.71,3.63-2.36,3.63-1.43,0-2.13-1.74-2.13-3.54S429.1,700.11,430.69,700.11Zm2.25,8h2.47V694.48h-2.47v5.44h0a3.41,3.41,0,0,0-2.84-1.3c-2.49,0-4.23,2.34-4.23,4.75,0,3,1.61,5,4.05,5a3.77,3.77,0,0,0,3-1.56h0Z" transform="translate(-195.99 -516.77)"/>
    <path class="cls-1" d="M442.24,700.48h0l.5-.73c.29-.38.83-1.13,1.59-1.13a2.41,2.41,0,0,1,1.67.84l-.92,1.71a2.21,2.21,0,0,0-1.17-.32c-.86,0-1.69.69-1.69,2.69v4.59h-2.47v-9.28h2.45Z" transform="translate(-195.99 -516.77)"/>
    <path class="cls-1" d="M451.56,698.85v9.28h-2.47v-9.28Zm-2.71-2.79a1.45,1.45,0,0,1,1.43-1.43,1.5,1.5,0,1,1-1.43,1.43Z" transform="translate(-195.99 -516.77)"/>
    <path class="cls-1" d="M454.67,711.86a1.41,1.41,0,0,0,1-.71,6.55,6.55,0,0,0,.3-2.28v-10h2.47v9.94c0,3.12-1.47,4-3.74,4Zm1-15.8a1.45,1.45,0,0,1,1.43-1.43,1.5,1.5,0,1,1-1.43,1.43Z" transform="translate(-195.99 -516.77)"/>
    <path class="cls-1" d="M465.35,708.13l-3.79-9,2.47-.45c.8,2.13,1.61,4.29,2.39,6.87h0c.84-2.58,1.69-4.74,2.54-6.87l2.12.39-4.05,9.08Z" transform="translate(-195.99 -516.77)"/>
    <path class="cls-1" d="M476.43,702.37a2.06,2.06,0,0,1,2-2.37c1.23,0,1.73,1,1.64,2.37Zm6,1.34c.18-2.77-1-5.09-3.92-5.09a4.52,4.52,0,0,0-4.73,4.68,4.76,4.76,0,0,0,4.9,5.05,7.35,7.35,0,0,0,3.63-1l-.7-1.3a4.6,4.6,0,0,1-2.49.74,2.79,2.79,0,0,1-2.71-3Z" transform="translate(-195.99 -516.77)"/>
    <path class="cls-1" d="M488.74,699.94a4.31,4.31,0,0,1,3.17-1.32c2.17,0,3.32,1.19,3.32,3.53v6h-2.47v-5.7c0-1.3-.57-2.15-1.85-2.15a2.09,2.09,0,0,0-2.16,2.32v5.53h-2.46v-9.28h2.45Z" transform="translate(-195.99 -516.77)"/>
    <g>
      <path class="cls-1" d="M364.41,603.11h-9.52c-7.09-8.57-16.67-19.84-21.19-27.67h-.14v27.67h-11.2V555.86h10.32c6.82,8.37,17,20.66,20.39,27.07h.13V555.86h11.21Z" transform="translate(-195.99 -516.77)"/>
      <path class="cls-1" d="M401.47,594.07c-6.35,0-8.64-6.21-8.64-15.12,0-8.37,2.56-14,8.64-14s8.64,5.67,8.64,14C410.11,587.86,407.81,594.07,401.47,594.07Zm0,9.85c14.51,0,23.49-10.87,23.49-25,0-13.23-9.93-23.9-23.49-23.9S378,565.72,378,579C378,593.05,387,603.92,401.47,603.92Z" transform="translate(-195.99 -516.77)"/>
      <path class="cls-1" d="M452,584.35c1.76-5.61,3.38-10.13,5.2-16.88h.14c1.68,6.75,3,11.27,4.59,16.88Zm1.15-28.49-19.24,47.25h11.14l4.52-11.27h14.65L468,603.11h15.12l-17.95-47.25Z" transform="translate(-195.99 -516.77)"/>
      <polygon class="cls-1" points="0 5.54 45.69 21.99 44.89 50.68 6.42 70.51 0 5.54"/>
      <polygon class="cls-1" points="41.28 32.96 42.08 58.69 77.75 83.16 79.76 37.6 41.28 32.96"/>
      <polygon class="cls-1" points="36.12 59.5 9.64 74.69 41.77 98.69 66.13 80.33 36.12 59.5"/>
      <polygon class="cls-1" points="7.6 3.16 48.03 18.35 82.75 15.98 45.18 0 7.6 3.16"/>
    </g>
  </g>
</svg>
